<svg width="30" height="30" viewBox="0 0 30 30" fill="none" xmlns="http://www.w3.org/2000/svg">
<path d="M20.7186 20.0356C22.8305 20.0356 24.5445 21.7496 24.5445 23.8615C24.5445 25.9734 22.8305 27.6875 20.7186 27.6875C18.6067 27.6875 16.8927 25.9734 16.8927 23.8615C16.8927 21.7496 18.6067 20.0356 20.7186 20.0356Z" fill="white"/>
<path d="M9.28135 12.3839C11.3932 12.3839 13.1073 14.0979 13.1073 16.2098C13.1073 18.3217 11.3932 20.0357 9.28135 20.0357C7.16945 20.0357 5.45544 18.3217 5.45544 16.2098C5.45544 14.0979 7.16945 12.3839 9.28135 12.3839Z" fill="white"/>
<path d="M20.7186 2.3125C22.8305 2.3125 24.5445 4.0265 24.5445 6.1384C24.5445 8.2503 22.8305 9.96431 20.7186 9.96431C18.6067 9.96431 16.8927 8.2503 16.8927 6.1384C16.8927 4.0265 18.6067 2.3125 20.7186 2.3125Z" fill="white"/>
<path d="M20.7186 22.9958L19.8181 24.5557L7.57861 17.4892L8.47917 15.9294L20.7186 22.9958Z" fill="white"/>
<path d="M9.4823 16.6026L8.32456 15.2229L19.151 6.1384L20.3087 7.51814L9.4823 16.6026Z" fill="white"/>
</svg>
