<svg width="255" height="255" viewBox="0 0 255 255" fill="none" xmlns="http://www.w3.org/2000/svg">
<path d="M66.3147 97.5788C66.3147 97.5788 66.3152 97.4522 66.3152 97.1991L66.3157 96.8194" stroke="black" stroke-miterlimit="10" stroke-linecap="round" stroke-linejoin="round"/>
<path d="M57.6035 94.4247C56.6933 84.0211 64.3343 74.8265 74.7288 73.8174L171.127 64.459C176.135 63.9727 181.131 65.5087 185.001 68.725C188.871 71.9413 191.295 76.5711 191.734 81.5843L196.216 132.813C197.126 143.216 189.485 152.411 179.091 153.42L82.6928 162.779C77.684 163.265 72.6887 161.729 68.8185 158.513C64.9482 155.296 62.524 150.666 62.0854 145.653L57.6035 94.4247Z" fill="#4CAF50"/>
<path d="M56.7156 92.5513C56.7156 82.1085 65.1274 73.6145 75.5698 73.5131L169.656 72.5995C174.688 72.5507 179.531 74.5155 183.107 78.0566C186.683 81.5977 188.694 86.4213 188.694 91.4537V142.878C188.694 153.321 180.282 161.815 169.84 161.916L75.7538 162.83C70.7216 162.879 65.8787 160.914 62.303 157.373C58.7273 153.832 56.7156 149.008 56.7156 143.976V92.5513Z" fill="#8BC34A"/>
<path d="M169.207 82.085C173.927 82.085 177.757 85.9157 177.757 90.6357C177.757 95.3556 173.927 99.1863 169.207 99.1863C164.487 99.1863 160.656 95.3556 160.656 90.6357C160.656 85.9157 164.487 82.085 169.207 82.085Z" fill="#2E7D32"/>
<path d="M44.8025 83.4341L102.688 112.618L189.535 42.4254L156.118 10.4173L102.368 94.27L69.5431 53.4004L44.8025 83.4341Z" fill="#00796B"/>
</svg>
