<?xml version="1.0" encoding="UTF-8" standalone="no" ?>
<!DOCTYPE svg PUBLIC "-//W3C//DTD SVG 1.1//EN" "http://www.w3.org/Graphics/SVG/1.1/DTD/svg11.dtd">
<svg xmlns="http://www.w3.org/2000/svg" xmlns:xlink="http://www.w3.org/1999/xlink" version="1.1" width="120" height="120" viewBox="0 0 120 120" xml:space="preserve">
<desc>Created with Fabric.js 5.3.0</desc>
<defs>
</defs>
<g transform="matrix(0.4281891312 0 0 0.8986055602 34.9190783907 78.9015437833)" id="xUuERYnyIN2ZJRcPUhw7t"  >
<path style="stroke: rgb(146,211,66); stroke-width: 0; stroke-dasharray: none; stroke-linecap: butt; stroke-dashoffset: 0; stroke-linejoin: miter; stroke-miterlimit: 4; fill: rgb(179,181,179); fill-rule: nonzero; opacity: 1;"  transform=" translate(0, 0)" d="M -27.89866 -27.89866 L 27.898650000000004 -27.89866 L 27.898650000000004 27.898650000000004 L -27.89866 27.898650000000004 z" stroke-linecap="round" />
</g>
<g transform="matrix(0.622062 0 0 0.7078682806 60.1713873492 55.7103538801)" id="nGHMgXeJt5yJrmPdOkRjy"  >
<path style="stroke: rgb(146,211,66); stroke-width: 0; stroke-dasharray: none; stroke-linecap: butt; stroke-dashoffset: 0; stroke-linejoin: miter; stroke-miterlimit: 4; fill: rgb(179,181,179); fill-rule: nonzero; opacity: 1;"  transform=" translate(0, 0)" d="M -27.89866 -27.89866 L 27.898650000000004 -27.89866 L 27.898650000000004 27.898650000000004 L -27.89866 27.898650000000004 z" stroke-linecap="round" />
</g>
<g transform="matrix(0.4281891312 0 0 0.8986055602 85.4236972024 78.9015419076)" id="9clpybZem5gg3YDO7X94E"  >
<path style="stroke: rgb(146,211,66); stroke-width: 0; stroke-dasharray: none; stroke-linecap: butt; stroke-dashoffset: 0; stroke-linejoin: miter; stroke-miterlimit: 4; fill: rgb(179,181,179); fill-rule: nonzero; opacity: 1;"  transform=" translate(0, 0)" d="M -27.89866 -27.89866 L 27.898650000000004 -27.89866 L 27.898650000000004 27.898650000000004 L -27.89866 27.898650000000004 z" stroke-linecap="round" />
</g>
<g transform="matrix(1.2254300081 0 0 0.6126054054 60.1713873492 36.4209343077)" id="65mqk_jD1kEPk_hlfBjSk"  >
<path style="stroke: none; stroke-width: 1; stroke-dasharray: none; stroke-linecap: butt; stroke-dashoffset: 0; stroke-linejoin: miter; stroke-miterlimit: 4; fill: rgb(179,181,179); fill-rule: nonzero; opacity: 1;"  transform=" translate(-40, -40)" d="M 60 40 L 80 80 L 40 80 L 0 80 L 20 40 L 40 0 L 60 40 z" stroke-linecap="round" />
</g>
</svg>