<?xml version="1.0" encoding="UTF-8" standalone="no" ?>
<!DOCTYPE svg PUBLIC "-//W3C//DTD SVG 1.1//EN" "http://www.w3.org/Graphics/SVG/1.1/DTD/svg11.dtd">
<svg xmlns="http://www.w3.org/2000/svg" xmlns:xlink="http://www.w3.org/1999/xlink" version="1.1" width="500" height="500" viewBox="0 0 500 500" xml:space="preserve">
<desc>Created with Fabric.js 5.3.0</desc>
<defs>
</defs>
<g transform="matrix(1 0 0 1 130.0298062593 190.5865041785)" id="Yzq8MNScwxlTHnFfNrbGY"  >
<path style="stroke: rgb(0,0,0); stroke-width: 1; stroke-dasharray: none; stroke-linecap: round; stroke-dashoffset: 0; stroke-linejoin: round; stroke-miterlimit: 10; fill: none; fill-rule: nonzero; opacity: 1;"  transform=" translate(-130.0298062593, -190.5865041785)" d="M 130.02880625931442 191.33103183736097 Q 130.02980625931443 191.33103183736097 130.02980625931443 190.58650417853573 L 130.03080625931443 189.8419765197105" stroke-linecap="round" />
</g>
<g transform="matrix(3.5290570712 -0.3426043698 0.2048425558 2.3413611262 248.8424705498 222.7820109559)" id="-QFx6XO9u_H--4tcbskVj"  >
<path style="stroke: rgb(33,202,101); stroke-width: 0; stroke-dasharray: none; stroke-linecap: butt; stroke-dashoffset: 0; stroke-linejoin: miter; stroke-miterlimit: 4; fill: rgb(76,175,80); fill-rule: nonzero; opacity: 1;"  transform=" translate(0, 0)" d="M -37.25782 -21.52602 C -37.25782 -30.238549999999996 -32.60495 -37.257819999999995 -26.82967 -37.257819999999995 L 26.73003 -37.257819999999995 L 26.73003 -37.257819999999995 C 29.51294 -37.257819999999995 32.190979999999996 -35.579679999999996 34.16821 -32.59683999999999 C 36.145450000000004 -29.613999999999994 37.25783 -25.573929999999994 37.25783 -21.375669999999992 L 37.25783 21.52602000000001 L 37.25783 21.52602000000001 C 37.25783 30.23855000000001 32.60496 37.25782000000001 26.829679999999996 37.25782000000001 L -26.730020000000003 37.25782000000001 L -26.730020000000003 37.25782000000001 C -29.512930000000004 37.25782000000001 -32.19097000000001 35.57968000000001 -34.168200000000006 32.59684000000001 C -36.14544000000001 29.614000000000008 -37.25782000000001 25.573930000000008 -37.25782000000001 21.375670000000007 z" stroke-linecap="round" />
</g>
<g transform="matrix(1 0 0 1 97.9764907774 140.2394001324)" id="T9-AxJRtk8ZGa8QlfmXhO"  >
<path style="stroke: rgb(0,0,0); stroke-width: 1; stroke-dasharray: none; stroke-linecap: butt; stroke-dashoffset: 0; stroke-linejoin: miter; stroke-miterlimit: 4; fill: rgb(255,255,255); fill-opacity: 0; fill-rule: nonzero; opacity: 1;"  transform=" translate(0, 0)" d="M 0 0" stroke-linecap="round" />
</g>
<g transform="matrix(1 0 0 1 85.9161892698 151.2946765143)" id="YX1q_WGbbHpulQ_UC_2nc"  >
<path style="stroke: rgb(0,0,0); stroke-width: 1; stroke-dasharray: none; stroke-linecap: butt; stroke-dashoffset: 0; stroke-linejoin: miter; stroke-miterlimit: 4; fill: rgb(255,255,255); fill-opacity: 0; fill-rule: nonzero; opacity: 1;"  transform=" translate(0, 0)" d="M 0 0" stroke-linecap="round" />
</g>
<g transform="matrix(1 0 0 1 145.5013443172 90.8830613601)" id="FjV7nfHD-WCr0fSLyMBaa"  >
<path style="stroke: rgb(0,0,0); stroke-width: 1; stroke-dasharray: none; stroke-linecap: butt; stroke-dashoffset: 0; stroke-linejoin: miter; stroke-miterlimit: 4; fill: rgb(255,255,255); fill-opacity: 0; fill-rule: nonzero; opacity: 1;"  transform=" translate(0, 0)" d="M 0 0" stroke-linecap="round" />
</g>
<g transform="matrix(1 0 0 1 148.1997115724 87.2967419088)" id="wGsuj0G3MW7lxV5NjN6Ug"  >
<path style="stroke: rgb(0,0,0); stroke-width: 1; stroke-dasharray: none; stroke-linecap: butt; stroke-dashoffset: 0; stroke-linejoin: miter; stroke-miterlimit: 4; fill: rgb(255,255,255); fill-opacity: 0; fill-rule: nonzero; opacity: 1;"  transform=" translate(0, 0)" d="M 0 0" stroke-linecap="round" />
</g>
<g transform="matrix(3.4728510395 -0.0337230665 0 2.3503047453 240.5978379823 230.8131739295)" id="JSBtDl3jAkQ06WupVRNCV"  >
<path style="stroke: rgb(33,202,101); stroke-width: 0; stroke-dasharray: none; stroke-linecap: butt; stroke-dashoffset: 0; stroke-linejoin: miter; stroke-miterlimit: 4; fill: rgb(139,195,74); fill-rule: nonzero; opacity: 1;"  transform=" translate(-0.000005, 0)" d="M -37.25782 -21.5276 C -37.25782 -30.23976 -32.50846 -37.257819999999995 -26.612650000000002 -37.257819999999995 L 26.508789999999998 -37.257819999999995 L 26.508789999999998 -37.257819999999995 C 29.34998 -37.257819999999995 32.0843 -35.57942 34.10315 -32.59618999999999 C 36.122 -29.612959999999994 37.25783 -25.572489999999995 37.25783 -21.374109999999995 L 37.25783 21.527600000000007 L 37.25783 21.527600000000007 C 37.25783 30.239760000000008 32.508469999999996 37.25782000000001 26.612659999999998 37.25782000000001 L -26.50878 37.25782000000001 L -26.50878 37.25782000000001 C -29.349970000000003 37.25782000000001 -32.08429 35.57942000000001 -34.10314 32.59619000000001 C -36.121990000000004 29.612960000000008 -37.25782 25.57249000000001 -37.25782 21.37411000000001 z" stroke-linecap="round" />
</g>
<g transform="matrix(1 0 0 1 331.7778121296 177.7170009456)" id="4hbUHOmpRCKtsGrT4hWRP"  >
<path style="stroke: rgb(252,156,105); stroke-width: 0; stroke-dasharray: none; stroke-linecap: butt; stroke-dashoffset: 0; stroke-linejoin: miter; stroke-miterlimit: 4; fill: rgb(46,125,50); fill-rule: nonzero; opacity: 1;"  transform=" translate(0, 0)" d="M 0 -16.76602 C 9.25485 -16.76602 16.76602 -9.254840000000002 16.76602 0 C 16.76602 9.25485 9.254840000000002 16.76602 0 16.76602 C -9.25485 16.76602 -16.76602 9.254840000000002 -16.76602 0 C -16.76602 -9.25485 -9.254840000000002 -16.76602 0 -16.76602 z" stroke-linecap="round" />
</g>
<g transform="matrix(1.2649494527 -0.0220797748 0.0220797748 1.2649494527 229.7017238282 121.0418755122)" id="dFq1EViqjqhCvx81msFSW"  >
<path style="stroke: rgb(0,0,0); stroke-opacity: 0.55; stroke-width: 0; stroke-dasharray: none; stroke-linecap: butt; stroke-dashoffset: 0; stroke-linejoin: miter; stroke-miterlimit: 4; fill: rgb(0,121,107); fill-rule: nonzero; opacity: 1;"  transform=" translate(0, 0)" d="M -112.69469 31.67411 L -23.783569999999997 78.4631 L 112.69469000000001 -27.958920000000006 L 61.777260000000005 -78.46311 L -23.78356999999999 50.022729999999996 L -73.54383999999999 -14.197450000000003 z" stroke-linecap="round" />
</g>
</svg>