<?xml version="1.0" encoding="UTF-8" standalone="no" ?>
<!DOCTYPE svg PUBLIC "-//W3C//DTD SVG 1.1//EN" "http://www.w3.org/Graphics/SVG/1.1/DTD/svg11.dtd">
<svg xmlns="http://www.w3.org/2000/svg" xmlns:xlink="http://www.w3.org/1999/xlink" version="1.1" width="500" height="500" viewBox="0 0 500 500" xml:space="preserve">
<desc>Created with Fabric.js 5.3.0</desc>
<defs>
</defs>
<g transform="matrix(1.5003328803 0 0 1.5003328803 250 56.1949966)" id="Ei8fHUQWbteyok0LSPAVb"  >
<path style="stroke: rgb(236,243,183); stroke-width: 0; stroke-dasharray: none; stroke-linecap: butt; stroke-dashoffset: 0; stroke-linejoin: miter; stroke-miterlimit: 4; fill: rgb(99,39,58); fill-rule: nonzero; opacity: 1;"  transform=" translate(0, 0)" d="M 0 -37.25782 C 20.56632 -37.25782 37.25782 -20.56631 37.25782 0 C 37.25782 20.56632 20.56631 37.25782 0 37.25782 C -20.56632 37.25782 -37.25782 20.56631 -37.25782 0 C -37.25782 -20.56632 -20.56631 -37.25782 0 -37.25782 z" stroke-linecap="round" />
</g>
<g transform="matrix(1.5003328803 0 0 1.5003328803 250 443.8050034)" id="Cs6epRHDvOzA46LGU8NrE"  >
<path style="stroke: rgb(236,243,183); stroke-width: 0; stroke-dasharray: none; stroke-linecap: butt; stroke-dashoffset: 0; stroke-linejoin: miter; stroke-miterlimit: 4; fill: rgb(99,39,58); fill-rule: nonzero; opacity: 1;"  transform=" translate(0, 0)" d="M 0 -37.25782 C 20.56632 -37.25782 37.25782 -20.56631 37.25782 0 C 37.25782 20.56632 20.56631 37.25782 0 37.25782 C -20.56632 37.25782 -37.25782 20.56631 -37.25782 0 C -37.25782 -20.56632 -20.56631 -37.25782 0 -37.25782 z" stroke-linecap="round" />
</g>
<g transform="matrix(1.5003328803 0 0 1.5003328803 250 250)" id="sXiuf78jQImVCcVmqlTJd"  >
<path style="stroke: rgb(236,243,183); stroke-width: 0; stroke-dasharray: none; stroke-linecap: butt; stroke-dashoffset: 0; stroke-linejoin: miter; stroke-miterlimit: 4; fill: rgb(99,39,58); fill-rule: nonzero; opacity: 1;"  transform=" translate(0, 0)" d="M 0 -37.25782 C 20.56632 -37.25782 37.25782 -20.56631 37.25782 0 C 37.25782 20.56632 20.56631 37.25782 0 37.25782 C -20.56632 37.25782 -37.25782 20.56631 -37.25782 0 C -37.25782 -20.56632 -20.56631 -37.25782 0 -37.25782 z" stroke-linecap="round" />
</g>
</svg>