<?xml version="1.0" encoding="UTF-8" standalone="no" ?>
<!DOCTYPE svg PUBLIC "-//W3C//DTD SVG 1.1//EN" "http://www.w3.org/Graphics/SVG/1.1/DTD/svg11.dtd">
<svg xmlns="http://www.w3.org/2000/svg" xmlns:xlink="http://www.w3.org/1999/xlink" version="1.1" width="120" height="120" viewBox="0 0 120 120" xml:space="preserve">
<desc>Created with Fabric.js 5.3.0</desc>
<defs>
</defs>
<g transform="matrix(1.7114534651 0 0 1.7114534651 82.8745295838 95.4462943714)" id="M6HLAZWnb4ktHbISDO52I"  >
<path style="stroke: rgb(41,85,203); stroke-width: 0; stroke-dasharray: none; stroke-linecap: butt; stroke-dashoffset: 0; stroke-linejoin: miter; stroke-miterlimit: 4; fill: rgb(155,155,155); fill-rule: nonzero; opacity: 1;"  transform=" translate(0, 0)" d="M 0 -8.94188 C 4.93592 -8.94188 8.94188 -4.935919999999999 8.94188 0 C 8.94188 4.93592 4.935919999999999 8.94188 0 8.94188 C -4.93592 8.94188 -8.94188 4.935919999999999 -8.94188 0 C -8.94188 -4.93592 -4.935919999999999 -8.94188 0 -8.94188 z" stroke-linecap="round" />
</g>
<g transform="matrix(1.7114534651 0 0 1.7114534651 37.1254704162 64.8390789006)" id="B740tfGSi6XQr5S4QasPY"  >
<path style="stroke: rgb(41,85,203); stroke-width: 0; stroke-dasharray: none; stroke-linecap: butt; stroke-dashoffset: 0; stroke-linejoin: miter; stroke-miterlimit: 4; fill: rgb(155,155,155); fill-rule: nonzero; opacity: 1;"  transform=" translate(0, 0)" d="M 0 -8.94188 C 4.93592 -8.94188 8.94188 -4.935919999999999 8.94188 0 C 8.94188 4.93592 4.935919999999999 8.94188 0 8.94188 C -4.93592 8.94188 -8.94188 4.935919999999999 -8.94188 0 C -8.94188 -4.93592 -4.935919999999999 -8.94188 0 -8.94188 z" stroke-linecap="round" />
</g>
<g transform="matrix(1.7114534651 0 0 1.7114534651 82.8745295838 24.5537056286)" id="HexNSnh_62on8-fhCEeF3"  >
<path style="stroke: rgb(41,85,203); stroke-width: 0; stroke-dasharray: none; stroke-linecap: butt; stroke-dashoffset: 0; stroke-linejoin: miter; stroke-miterlimit: 4; fill: rgb(155,155,155); fill-rule: nonzero; opacity: 1;"  transform=" translate(0, 0)" d="M 0 -8.94188 C 4.93592 -8.94188 8.94188 -4.935919999999999 8.94188 0 C 8.94188 4.93592 4.935919999999999 8.94188 0 8.94188 C -4.93592 8.94188 -8.94188 4.935919999999999 -8.94188 0 C -8.94188 -4.93592 -4.935919999999999 -8.94188 0 -8.94188 z" stroke-linecap="round" />
</g>
<g transform="matrix(-0.201425921 0.3488799292 -2.7375578499 -1.5805297615 56.5944958651 80.9702624113)" id="lztr3FGpDpu-Y77i4IcYm"  >
<path style="stroke: rgb(147,142,89); stroke-width: 0; stroke-dasharray: none; stroke-linecap: butt; stroke-dashoffset: 0; stroke-linejoin: miter; stroke-miterlimit: 4; fill: rgb(155,155,155); fill-rule: nonzero; opacity: 1;"  transform=" translate(0, 0)" d="M -8.94188 -8.94188 L 8.94188 -8.94188 L 8.94188 8.94188 L -8.94188 8.94188 z" stroke-linecap="round" />
</g>
<g transform="matrix(-0.2589481726 -0.308602415 2.421512082 -2.0318898949 57.2667660236 45.4821070045)" id="2lKudrrVMGRBuvBmOjhlP"  >
<path style="stroke: rgb(147,142,89); stroke-width: 0; stroke-dasharray: none; stroke-linecap: butt; stroke-dashoffset: 0; stroke-linejoin: miter; stroke-miterlimit: 4; fill: rgb(155,155,155); fill-rule: nonzero; opacity: 1;"  transform=" translate(0, 0)" d="M -8.94188 -8.94188 L 8.94188 -8.94188 L 8.94188 8.94188 L -8.94188 8.94188 z" stroke-linecap="round" />
</g>
</svg>